<?xml version="1.0" encoding="utf-8"?>
<!-- Generator: Adobe Illustrator 21.1.0, SVG Export Plug-In . SVG Version: 6.00 Build 0)  -->
<svg version="1.1" xmlns="http://www.w3.org/2000/svg" xmlns:xlink="http://www.w3.org/1999/xlink" x="0px" y="0px"
	 viewBox="0 0 640 587" style="enable-background:new 0 0 640 587;" xml:space="preserve">
<style type="text/css">
	.st0{display:none;}
	.st1{display:inline;fill:#212121;}
	.st2{display:inline;}
	.st3{fill:#212121;}
	.st4{fill:#FFFFFF;}
	.st5{fill:#A8A8A8;}
	.st6{display:inline;fill:#FFFFFF;}
</style>
<g id="Guides" class="st0">
	
		<image style="display:inline;overflow:visible;" width="198" height="193" xlink:href="47A3C343.jpg"  transform="matrix(3.5959 0 0 3.5959 -39 -58)">
	</image>
</g>
<g id="Layer_2" class="st0">
	<g id="Layer_6">
		<path class="st1" d="M60,162c-6.4,0-12.6-1.1-18.3-3.1v226.3c5.7-2,11.9-3.1,18.3-3.1c6.1,0,11.9,1,17.3,2.8V159.2
			C71.9,161,66.1,162,60,162z"/>
		<path class="st1" d="M321,262c-6.4,0-12.6-1.1-18.3-3.1v226.3c5.7-2,11.9-3.1,18.3-3.1c6.1,0,11.9,1,17.3,2.8V259.2
			C332.9,261,327.1,262,321,262z"/>
		<path class="st1" d="M581,162c-6.4,0-12.6-1.1-18.3-3.1v226.3c5.7-2,11.9-3.1,18.3-3.1c6.1,0,11.9,1,17.3,2.8V159.2
			C592.9,161,587.1,162,581,162z"/>
		<g class="st2">
			<path class="st3" d="M353.9,163.7l115-119.1l-14.4-13.9L335.3,154.2C342.2,156.2,348.5,159.4,353.9,163.7z"/>
			<path class="st3" d="M306.9,153.6L187.5,29.9l-14.4,13.9l114.6,118.7C293.4,158.4,299.9,155.3,306.9,153.6z"/>
			<path class="st3" d="M320,152c3.8,0,7.4,0.4,11,1.1V14h-20v138.7C313.9,152.3,316.9,152,320,152z"/>
		</g>
		
			<rect x="173.1" y="142" transform="matrix(0.9368 0.3499 -0.3499 0.9368 72.4977 -69.6111)" class="st4" width="111.7" height="47.8"/>
		
			<rect x="357.6" y="142.1" transform="matrix(-0.9368 0.3499 -0.3499 -0.9368 858.8937 176.6261)" class="st4" width="111.7" height="47.6"/>
	</g>
	<g id="Layer_3" class="st2">
	</g>
	<path class="st1" d="M86,107c0,14.4-11.6,26-26,26s-26-11.6-26-26s11.6-26,26-26S86,92.6,86,107z M60,67c-22.1,0-40,17.9-40,40
		s17.9,40,40,40s40-17.9,40-40S82.1,67,60,67z"/>
	<path class="st1" d="M346,207c0,14.4-11.6,26-26,26s-26-11.6-26-26s11.6-26,26-26S346,192.6,346,207z M320,167
		c-22.1,0-40,17.9-40,40s17.9,40,40,40s40-17.9,40-40S342.1,167,320,167z"/>
	<path class="st1" d="M606,107c0,14.4-11.6,26-26,26s-26-11.6-26-26s11.6-26,26-26S606,92.6,606,107z M580,67c-22.1,0-40,17.9-40,40
		s17.9,40,40,40s40-17.9,40-40S602.1,67,580,67z"/>
	<path class="st1" d="M86,437c0,14.4-11.6,26-26,26s-26-11.6-26-26s11.6-26,26-26S86,422.6,86,437z M60,397c-22.1,0-40,17.9-40,40
		s17.9,40,40,40s40-17.9,40-40S82.1,397,60,397z"/>
	<path class="st1" d="M346,537c0,14.4-11.6,26-26,26s-26-11.6-26-26s11.6-26,26-26S346,522.6,346,537z M320,497
		c-22.1,0-40,17.9-40,40s17.9,40,40,40s40-17.9,40-40S342.1,497,320,497z"/>
	<path class="st1" d="M606,437c0,14.4-11.6,26-26,26s-26-11.6-26-26s11.6-26,26-26S606,422.6,606,437z M580,397
		c-22.1,0-40,17.9-40,40s17.9,40,40,40s40-17.9,40-40S602.1,397,580,397z"/>
	<rect x="46" y="93" class="st5" width="28" height="28"/>
	<rect x="306" y="193" class="st5" width="28" height="28"/>
</g>
<g id="Layer_4_copy" class="st0">
	<circle class="st5" cx="60" cy="437" r="55"/>
	<circle class="st5" cx="320" cy="537" r="55"/>
	<path class="st1" d="M278,171.5L115,108.8c-0.4,12.9-5.2,24.6-13,33.8L265,205.2C265.4,192.4,270.3,180.6,278,171.5z"/>
	<path class="st1" d="M278,501.5L115,438.8c-0.4,12.9-5.2,24.6-13,33.8L265,535.2C265.4,522.4,270.3,510.6,278,501.5z"/>
</g>
<g id="Layer_4_copy_2" class="st0">
	<path class="st1" d="M362,171.5L525,108.8c0.4,12.9,5.2,24.6,13,33.8L375,205.2C374.6,192.4,369.7,180.6,362,171.5z"/>
	<path class="st1" d="M362,501.5L525,438.8c0.4,12.9,5.2,24.6,13,33.8L375,535.2C374.6,522.4,369.7,510.6,362,501.5z"/>
</g>
<g id="Layer_12" class="st0">
</g>
<g id="Layer_13" class="st0">
	<rect x="316" y="14" width="10" height="193"/>
</g>
<g id="Layer_11" class="st0">
</g>
<g id="Layer_8" class="st0">
	<circle class="st6" cx="580" cy="107" r="37.4"/>
	<circle class="st6" cx="320.5" cy="207.5" r="37.4"/>
	<circle class="st6" cx="60" cy="107" r="37.4"/>
	<circle class="st6" cx="60" cy="437" r="37.4"/>
	<circle class="st6" cx="580" cy="437" r="37.4"/>
	<circle class="st6" cx="320" cy="537" r="37.4"/>
</g>
<g id="Layer_9" class="st0">
	<g id="Layer_10" class="st2">
	</g>
	<circle class="st6" cx="60" cy="107" r="56"/>
	<circle class="st6" cx="320" cy="207" r="56"/>
	<circle class="st6" cx="580" cy="107" r="56"/>
	<circle class="st6" cx="580" cy="437" r="56"/>
	<circle class="st6" cx="320" cy="537" r="56"/>
	<circle class="st6" cx="60" cy="437" r="56"/>
</g>
<g id="Layer_7" class="st0">
</g>
<g id="Layer_8_copy">
	<g>
		<path d="M320,141c1.7,0,3.3,0.1,5,0.2V5c0-2.8-2.3-5-5-5s-5,2.3-5,5v136.2C316.7,141.1,318.3,141,320,141z"/>
		<path d="M287.4,149.6L179.5,45.4c-2-1.9-5.2-1.9-7.1,0.1c-1.9,2-1.9,5.2,0.1,7.1L279,155.3C281.6,153.2,284.5,151.3,287.4,149.6z"
			/>
		<path d="M467.5,45.5L467.5,45.5c-1.9-2-5.1-2-7.1-0.1L352.6,149.6c3,1.7,5.8,3.6,8.5,5.7L467.4,52.6
			C469.4,50.7,469.4,47.5,467.5,45.5z"/>
	</g>
	<path d="M598,390.4V153.6c18.7-7.2,32-25.4,32-46.6c0-27.6-22.4-50-50-50c-26.8,0-48.6,21.1-49.9,47.5l-174.3,67.6
		C346.7,162.8,334,157,320,157s-26.7,5.8-35.8,15.1l-174.3-67.6C108.6,78.1,86.8,57,60,57c-27.6,0-50,22.4-50,50
		c0,21.3,13.3,39.4,32,46.6v236.7c-18.7,7.2-32,25.4-32,46.6c0,27.6,22.4,50,50,50c14,0,26.7-5.8,35.8-15.1l174.3,67.6
		c1.3,26.5,23.2,47.5,49.9,47.5s48.6-21.1,49.9-47.5l174.3-67.6c9.1,9.3,21.7,15.1,35.8,15.1c27.6,0,50-22.4,50-50
		C630,415.7,616.7,397.6,598,390.4z M580,69.6c20.6,0,37.4,16.7,37.4,37.4c0,20.6-16.7,37.4-37.4,37.4s-37.4-16.7-37.4-37.4
		C542.6,86.4,559.4,69.6,580,69.6z M320.5,170.1c20.6,0,37.4,16.7,37.4,37.4c0,20.6-16.7,37.4-37.4,37.4s-37.4-16.7-37.4-37.4
		C283.1,186.9,299.9,170.1,320.5,170.1z M22.6,107c0-20.6,16.7-37.4,37.4-37.4S97.4,86.4,97.4,107c0,20.6-16.7,37.4-37.4,37.4
		S22.6,127.6,22.6,107z M60,474.4c-20.6,0-37.4-16.7-37.4-37.4c0-20.6,16.7-37.4,37.4-37.4s37.4,16.7,37.4,37.4
		C97.4,457.6,80.6,474.4,60,474.4z M109.9,434.5c-1-20.6-14.4-37.9-32.9-44.5V154c7.2-2.6,13.6-6.8,18.8-12.1l174.3,67.6
		c1,20.6,14.4,37.9,32.9,44.5V490c-7.2,2.6-13.6,6.8-18.8,12.1L109.9,434.5z M320,574.4c-20.6,0-37.4-16.7-37.4-37.4
		c0-20.6,16.7-37.4,37.4-37.4s37.4,16.7,37.4,37.4C357.4,557.6,340.6,574.4,320,574.4z M355.8,502.1c-5-5.1-11-9.1-17.8-11.7V253.6
		c18-6.9,31-24,31.9-44.2l174.3-67.6c5.2,5.3,11.6,9.5,18.8,12.1V390c-18.5,6.7-31.9,24-32.9,44.5L355.8,502.1z M580,474.4
		c-20.6,0-37.4-16.7-37.4-37.4c0-20.6,16.7-37.4,37.4-37.4s37.4,16.7,37.4,37.4C617.4,457.6,600.6,474.4,580,474.4z"/>
</g>
</svg>
