<?xml version="1.0" encoding="utf-8"?>
<!-- Generator: Adobe Illustrator 16.0.3, SVG Export Plug-In . SVG Version: 6.00 Build 0)  -->
<!DOCTYPE svg PUBLIC "-//W3C//DTD SVG 1.1//EN" "http://www.w3.org/Graphics/SVG/1.1/DTD/svg11.dtd">
<svg version="1.1" id="logo" xmlns="http://www.w3.org/2000/svg" xmlns:xlink="http://www.w3.org/1999/xlink" x="0px" y="0px"
	 width="205.073px" height="15.607px" viewBox="0 0 205.073 15.607" style="enable-background:new 0 0 205.073 15.607;"
	 xml:space="preserve">
<g>
	<rect x="-15.001" y="-14.716" style="fill:none;" width="233.862" height="45.003"/>
	<path d="M9.358,10.366c0,3.937-1.628,5.186-4.688,5.186C1.164,15.552,0,13.81,0,10.18V0.285h2.307V10
		c0,1.325-0.087,3.818,2.381,3.818c2.037,0,2.402-1.48,2.402-3.716V0.285h2.269V10.366z"/>
	<path d="M176.57,15.285l-4.514-12.961v12.961h-1.937v-15h3.385l4.515,12.961V0.285h2.077v15H176.57z"/>
	<path d="M18.83,15.285L14.315,2.324v12.961h-1.937v-15h3.385l4.515,12.961V0.285h2.077v15H18.83z"/>
	<path d="M25.852,15.285v-15h2.326v15H25.852z"/>
	<path d="M75.298,15.285v-15h2.326v15H75.298z"/>
	<path d="M36.583,15.285h-2.734l-3.791-15h2.42l2.845,12.879l2.95-12.879h2.268L36.583,15.285z"/>
	<path d="M42.372,15.285v-15H49.8v1.793h-5.122v4.574h4.79v1.732h-4.79v5.107h5.267v1.793H42.372z"/>
	<path d="M159.856,15.285v-15h7.428v1.793h-5.122v4.574h4.79v1.732h-4.79v5.107h5.267v1.793H159.856z"/>
	<path d="M193.087,15.285v-15h7.428v1.793h-5.122v4.574h4.79v1.732h-4.79v5.107h5.267v1.793H193.087z"/>
	<path d="M58.844,15.285c-0.211-1.438-0.213-3.648-0.229-3.926c-0.055-1.123-0.2-1.842-0.436-2.162
		c-0.275-0.4-0.911-0.602-1.906-0.602h-1.389v6.689h-2.324v-15h4.313c2.48,0,4.292,0.596,4.292,3.797c0,2.02-0.818,3.23-2.452,3.631
		c0.843,0.069,1.424,0.359,1.741,0.871c0.25,0.389,0.478,1.282,0.478,2.403c0,0.428,0.09,3.356,0.311,4.298H58.844z M58.812,4.264
		c0-1.737-0.918-2.225-2.371-2.225h-1.556v4.803h1.212C58.084,6.842,58.812,6.314,58.812,4.264z"/>
	<path d="M72.452,11.508c0,2.695-1.475,4.044-4.421,4.044c-3.298,0-4.44-1.324-4.44-4.474v-0.164h2.381v0.164
		c0,1.781,0.457,2.76,2.059,2.76c1.372,0,2.059-0.715,2.059-2.145c0-1.276-0.775-1.879-1.433-2.307
		c-0.317-0.207-0.739-0.471-1.267-0.791c-2.215-1.363-3.59-2.269-3.59-4.701C63.8,1.412,65.336,0,68.194,0
		C70.932,0,72.3,1.248,72.3,3.746v0.539h-2.326V3.912c0-1.453-0.627-2.178-1.885-2.178c-1.139,0-1.927,0.655-1.927,1.994
		c0,1.487,1.06,1.974,2.056,2.615c0.346,0.221,0.699,0.449,1.059,0.684C71.625,8.527,72.452,9.212,72.452,11.508z"/>
	<path d="M85.334,2.078v13.207H83.01V2.078h-3.463V0.285h9.25v1.793H85.334z"/>
	<path d="M136.533,2.078v13.207h-2.324V2.078h-3.463V0.285h9.25v1.793H136.533z"/>
	<path d="M187.729,2.078v13.207h-2.324V2.078h-3.463V0.285h9.25v1.793H187.729z"/>
	<path d="M154.665,15.285h-2.714L149.61,2.699l-2.591,12.586h-2.714l-3.19-15h2.458l2.22,12.545l2.571-12.545h2.715l2.365,12.545
		l2.385-12.545h2.172L154.665,15.285z"/>
	<circle cx="203.862" cy="14.396" r="1.211"/>
	<g>
		<path d="M95.518,9.561v5.726h-2.324V9.561l-3.942-9.275h2.573l2.697,7.159l2.76-7.159h2.386L95.518,9.561z"/>
		<path d="M115.05,7.92c0,2.712-0.235,4.544-0.706,5.499c-0.678,1.425-2.068,2.137-4.17,2.137c-2.006,0-3.348-0.685-4.025-2.054
			c-0.277-0.581-0.47-1.335-0.581-2.262c-0.083-0.706-0.125-1.806-0.125-3.299c0-1.813,0.062-3.126,0.187-3.942
			c0.166-1.121,0.519-2.006,1.058-2.656c0.775-0.898,1.958-1.349,3.548-1.349c1.618,0,2.801,0.408,3.548,1.225
			c0.553,0.595,0.913,1.479,1.079,2.655C114.988,4.69,115.05,6.039,115.05,7.92z M112.643,7.65c0-1.812-0.062-3.063-0.187-3.756
			c-0.277-1.438-1.017-2.157-2.22-2.157c-1.19,0-1.944,0.761-2.262,2.282c-0.056,0.276-0.097,0.72-0.125,1.328
			c-0.028,0.608-0.042,1.397-0.042,2.365c0,0.899,0.01,1.653,0.031,2.262c0.021,0.608,0.059,1.079,0.114,1.411
			c0.125,0.816,0.346,1.418,0.664,1.805c0.346,0.429,0.885,0.644,1.619,0.644c1.231,0,1.978-0.774,2.241-2.324
			c0.055-0.318,0.097-0.795,0.125-1.432C112.629,9.442,112.643,8.633,112.643,7.65z"/>
		<path d="M120.292,2.07v4.606h4.44v1.742h-4.44v6.867h-2.303V0.285h6.992V2.07H120.292z"/>
	</g>
</g>
</svg>
