<?xml version="1.0" encoding="utf-8"?>
<!-- Generator: Adobe Illustrator 18.0.0, SVG Export Plug-In . SVG Version: 6.00 Build 0)  -->
<!DOCTYPE svg PUBLIC "-//W3C//DTD SVG 1.1//EN" "http://www.w3.org/Graphics/SVG/1.1/DTD/svg11.dtd">
<svg version="1.1" id="Laag_1" xmlns="http://www.w3.org/2000/svg" xmlns:xlink="http://www.w3.org/1999/xlink" x="0px" y="0px"
	 viewBox="0 0 283.5 470.4" enable-background="new 0 0 283.5 470.4" xml:space="preserve">
<line fill="none" stroke="#6A6A6A" stroke-width="15" stroke-miterlimit="10" x1="141.7" y1="139" x2="141.7" y2="367.2"/>
<g>
	<path fill="#B2DBD1" d="M141.7,276c-74,0-134.2-60.2-134.2-134.2c0-74,60.2-134.2,134.2-134.2c74,0,134.2,60.2,134.2,134.2
		C276,215.7,215.7,276,141.7,276z"/>
	<path fill="#FFFFFF" d="M141.7,15c33.9,0,65.7,13.2,89.6,37.1c23.9,23.9,37.1,55.8,37.1,89.6c0,33.9-13.2,65.7-37.1,89.6
		c-23.9,23.9-55.8,37.1-89.6,37.1c-33.9,0-65.7-13.2-89.6-37.1C28.2,207.4,15,175.6,15,141.7c0-33.9,13.2-65.7,37.1-89.6
		C76.1,28.2,107.9,15,141.7,15 M141.7,0C63.5,0,0,63.5,0,141.7C0,220,63.5,283.5,141.7,283.5c78.3,0,141.7-63.5,141.7-141.7
		C283.5,63.5,220,0,141.7,0L141.7,0z"/>
</g>
<g>
	<polygon fill="#6A6A6A" points="76.1,339.3 207.4,339.3 141.7,455.2 	"/>
	<path fill="#6A6A6A" d="M194.5,346.8L141.7,440l-52.8-93.2H194.5 M220.3,331.8H63.2l78.6,138.6L220.3,331.8L220.3,331.8z"/>
</g>
</svg>
