<?xml version="1.0" standalone="no"?>
<!DOCTYPE svg PUBLIC "-//W3C//DTD SVG 20010904//EN"
 "http://www.w3.org/TR/2001/REC-SVG-20010904/DTD/svg10.dtd">
<svg version="1.0" xmlns="http://www.w3.org/2000/svg"
 width="320.000000pt" height="320.000000pt" viewBox="0 0 320.000000 320.000000"
 preserveAspectRatio="xMidYMid meet">
<metadata>
Created by potrace 1.11, written by Peter Selinger 2001-2013
</metadata>
<g transform="translate(0.000000,320.000000) scale(0.100000,-0.100000)"
fill="#000000" stroke="none">
<path d="M1583 3058 c-4 -7 -8 -167 -8 -355 l-1 -343 26 0 26 0 -1 343 c0 188
-4 348 -8 355 -5 6 -12 12 -17 12 -5 0 -12 -6 -17 -12z"/>
<path d="M859 2834 c-12 -14 5 -34 141 -166 85 -83 208 -202 272 -264 64 -63
121 -114 125 -114 4 0 16 7 25 14 16 12 -3 33 -195 218 -334 324 -339 328
-347 328 -4 0 -14 -7 -21 -16z"/>
<path d="M2248 2788 c-36 -35 -161 -155 -277 -267 -190 -184 -209 -205 -193
-217 9 -7 21 -14 26 -14 4 0 61 51 125 114 64 62 186 181 271 263 136 133 153
153 141 167 -7 9 -16 16 -20 16 -4 0 -36 -28 -73 -62z"/>
<path d="M200 2760 c-158 -74 -199 -272 -83 -400 18 -21 47 -43 63 -50 l30
-12 0 -594 c0 -590 0 -593 -21 -599 -37 -12 -92 -69 -115 -120 -79 -169 49
-362 234 -354 52 2 112 24 162 60 11 8 48 -2 155 -44 77 -30 272 -106 432
-168 251 -97 293 -116 293 -134 0 -32 45 -117 76 -147 141 -132 387 -56 418
128 l7 41 172 66 c95 36 289 112 432 167 202 79 263 99 275 90 8 -6 39 -22 69
-37 118 -57 263 -5 327 117 28 52 26 171 -3 226 -23 44 -97 114 -120 114 -11
0 -13 109 -13 594 0 592 0 595 21 601 71 23 139 133 139 225 -1 265 -364 346
-476 105 -13 -27 -24 -59 -24 -71 0 -22 30 -9 -596 -251 l-271 -104 -46 31
c-82 55 -206 52 -285 -7 l-33 -25 -157 61 c-86 33 -245 94 -352 136 -107 42
-232 90 -277 107 -68 25 -83 35 -83 52 -1 31 -37 107 -68 139 -67 71 -196 97
-282 57z m193 -73 c118 -66 119 -244 1 -313 -142 -83 -311 46 -272 207 9 38
50 89 88 109 60 33 121 31 183 -3z m2600 0 c118 -66 119 -244 1 -313 -181
-106 -369 125 -228 282 56 62 149 75 227 31z m-2077 -503 c236 -91 430 -167
431 -167 0 -1 3 -16 6 -33 11 -69 81 -161 136 -179 12 -3 22 -12 22 -18 1 -7
2 -272 3 -591 l1 -578 -35 -19 c-19 -11 -42 -24 -50 -30 -11 -8 -77 14 -275
91 -143 55 -338 131 -432 167 -147 56 -173 70 -173 87 0 33 -45 118 -76 147
-16 15 -42 33 -59 42 l-30 15 0 584 0 583 45 32 c25 17 48 31 51 32 3 1 199
-74 435 -165z m1819 156 c4 -6 23 -19 43 -29 l37 -19 -1 -578 c-1 -319 -2
-584 -3 -591 0 -6 -10 -15 -22 -18 -56 -18 -120 -102 -134 -176 l-7 -36 -241
-93 c-133 -51 -255 -98 -272 -105 -16 -7 -102 -41 -191 -75 l-160 -62 -39 26
c-21 14 -42 26 -46 26 -5 0 -9 267 -9 594 0 592 0 595 21 601 56 18 139 131
139 190 0 18 38 35 263 122 144 55 269 103 277 106 8 4 83 33 165 66 160 64
170 66 180 51z m-1061 -144 c93 -39 137 -145 98 -236 -35 -82 -103 -122 -188
-114 -181 18 -226 259 -64 345 41 22 108 24 154 5z m-1338 -1135 c37 -2 110
-58 129 -101 72 -161 -93 -322 -249 -243 -116 59 -133 232 -31 308 30 22 92
44 115 39 8 -1 24 -3 36 -3z m2599 0 c35 -2 102 -52 125 -94 86 -152 -79 -325
-240 -252 -41 19 -99 91 -101 127 -3 45 -2 55 4 89 14 68 114 144 177 133 8
-1 24 -3 35 -3z m-1252 -517 c41 -19 96 -92 98 -131 1 -13 2 -29 3 -35 4 -27
-17 -84 -41 -113 -80 -96 -225 -89 -293 13 -30 45 -33 59 -32 120 3 67 60 137
130 158 45 13 85 10 135 -12z"/>
</g>
</svg>
